<?xml version="1.0" standalone="no"?>
<!DOCTYPE svg PUBLIC "-//W3C//DTD SVG 20010904//EN"
 "http://www.w3.org/TR/2001/REC-SVG-20010904/DTD/svg10.dtd">
<svg version="1.0" xmlns="http://www.w3.org/2000/svg"
 width="1000.000000pt" height="1000.000000pt" viewBox="0 0 1000.000000 1000.000000"
 preserveAspectRatio="xMidYMid meet">
<metadata>
Created by potrace 1.11, written by Peter Selinger 2001-2013
</metadata>
<g transform="translate(0.000000,1000.000000) scale(0.100000,-0.100000)"
fill="#000000" stroke="none">
<path d="M2138 7315 c-2 -1 -32 -5 -68 -9 -135 -12 -297 -73 -421 -156 -85
-57 -208 -183 -263 -267 -216 -336 -202 -762 34 -1079 130 -174 327 -305 535
-356 47 -11 85 -26 86 -32 0 -6 1 -611 1 -1343 0 -733 3 -1334 7 -1334 39 -7
221 -2 222 6 1 5 3 96 4 200 1 105 3 194 4 198 0 4 16 -9 33 -30 270 -313 641
-455 1073 -409 379 40 711 268 921 631 9 16 14 11 43 -41 110 -195 296 -370
501 -472 75 -38 172 -76 220 -87 3 -1 19 -4 35 -8 81 -20 214 -33 310 -31 368
7 654 137 893 408 31 37 42 44 43 30 0 -10 1 -104 2 -209 l2 -190 122 0 c74 0
124 4 126 10 2 5 3 99 2 207 l0 198 70 -73 c122 -126 213 -196 340 -259 287
-144 663 -162 977 -48 277 101 532 335 657 605 26 56 69 177 76 215 3 14 8 39
11 55 20 106 26 358 9 435 -2 14 -9 48 -14 77 -55 293 -277 599 -556 765 -215
128 -477 181 -755 154 -285 -28 -518 -141 -725 -352 l-90 -93 0 399 c0 219 3
400 5 402 3 2 38 12 79 21 41 10 112 35 158 57 382 179 599 582 537 1000 -56
382 -353 697 -733 780 -101 22 -225 30 -302 20 -123 -18 -146 -23 -236 -55
-461 -165 -720 -662 -592 -1135 25 -93 94 -238 147 -307 33 -45 48 -83 101
-268 35 -119 61 -218 60 -219 -2 -2 -89 -56 -194 -122 -185 -115 -192 -118
-251 -120 -345 -9 -614 -122 -844 -354 -78 -79 -181 -217 -211 -283 l-12 -27
-40 67 c-166 279 -423 478 -712 552 -128 33 -197 42 -323 42 -110 1 -193 -6
-269 -22 -29 -6 -56 -11 -60 -11 -5 0 -46 -14 -93 -30 -170 -60 -315 -153
-447 -288 -40 -41 -73 -77 -73 -81 0 -4 -6 -9 -13 -12 -9 -3 -12 77 -12 389 0
217 3 395 7 395 5 1 11 2 16 3 4 1 29 6 56 10 291 46 575 263 696 530 70 155
85 231 84 421 -2 164 -21 251 -84 384 -133 278 -385 472 -690 530 -50 10 -216
21 -222 16z m164 -220 c245 -34 484 -224 573 -455 41 -106 54 -181 50 -293 -9
-287 -166 -525 -429 -648 -103 -48 -180 -65 -301 -66 -259 -2 -484 117 -628
330 -49 74 -102 206 -113 284 -53 364 154 703 500 818 119 40 215 48 348 30z
m4277 -5 c265 -48 485 -241 570 -500 85 -261 14 -548 -185 -744 -368 -362
-974 -253 -1197 216 -47 99 -61 171 -62 308 0 108 4 136 27 210 72 226 247
407 470 486 41 14 57 18 158 33 58 9 139 6 219 -9z m-499 -1599 c72 -28 164
-54 240 -65 l35 -6 -2 -362 c-1 -200 -2 -378 -3 -397 l0 -33 -47 53 c-158 175
-306 272 -537 353 -15 5 15 28 135 102 85 53 156 98 158 100 4 4 -18 89 -58
227 -14 46 -16 67 -8 63 7 -2 46 -18 87 -35z m-2703 -645 c220 -40 383 -124
538 -280 192 -193 283 -410 283 -674 0 -133 -15 -224 -53 -331 -108 -298 -375
-538 -681 -612 -94 -23 -274 -31 -384 -17 -401 51 -763 414 -817 818 -32 243
22 483 151 675 39 57 157 183 220 234 74 60 253 149 333 166 138 30 311 38
410 21z m2210 -5 c386 -70 706 -392 773 -779 14 -82 11 -305 -5 -375 -44 -190
-130 -342 -271 -481 -148 -147 -342 -247 -529 -273 -97 -14 -346 -6 -375 12
-3 2 -17 6 -31 8 -41 8 -147 47 -195 73 -230 123 -421 351 -489 587 -26 91
-30 129 -30 282 0 124 4 165 23 235 97 367 420 659 791 714 97 15 247 13 338
-3z m2126 4 c72 -12 79 -14 146 -36 333 -110 596 -411 655 -751 14 -82 15
-280 2 -343 -47 -214 -129 -368 -279 -516 -147 -145 -336 -241 -527 -266 -60
-9 -244 -9 -301 -1 -194 27 -382 123 -533 271 -148 146 -233 295 -271 479 -18
82 -21 319 -5 398 35 184 116 335 259 483 154 160 354 261 564 286 71 8 228 6
290 -4z"/>
<path d="M1701 6713 c-47 -24 -72 -62 -78 -114 -6 -54 24 -105 77 -131 l35
-18 1 -192 c0 -172 2 -192 17 -194 13 -2 17 5 17 27 l0 30 35 -27 c69 -52 178
-42 234 22 l30 34 17 -26 c23 -34 89 -66 135 -66 42 1 97 22 122 46 16 16 17
16 17 -12 0 -23 4 -30 18 -28 11 2 17 12 17 30 -1 14 3 26 7 26 4 0 8 -4 8 -8
0 -5 18 -19 40 -31 97 -54 220 -6 251 98 33 109 -41 220 -149 223 -65 2 -78
-1 -116 -27 -31 -21 -36 -22 -37 -7 0 9 -1 32 -2 51 -1 22 3 35 13 38 58 18
97 64 104 122 8 71 -71 155 -140 147 -16 -2 -36 -4 -45 -5 -25 -2 -78 -57 -85
-88 -3 -16 -7 -34 -10 -41 -2 -7 8 -42 23 -78 l27 -65 -20 -20 c-12 -11 -38
-22 -58 -25 -49 -6 -89 -27 -115 -60 l-21 -26 -35 33 c-37 36 -85 56 -122 53
-13 -1 -34 -2 -47 -3 -14 0 -38 -12 -54 -26 -17 -14 -32 -25 -35 -25 -3 0 -5
22 -5 49 -1 48 0 50 33 61 43 14 82 60 91 105 20 107 -99 198 -195 148z m122
-40 c45 -42 54 -91 24 -137 -47 -71 -146 -65 -182 11 -9 19 -14 45 -11 57 8
31 44 76 69 85 31 11 78 4 100 -16z m612 1 c58 -38 57 -130 -3 -170 -18 -12
-40 -21 -50 -19 -9 2 -25 4 -35 4 -30 1 -77 59 -77 93 0 90 90 141 165 92z
m-91 -220 c12 -4 16 -20 16 -56 l0 -49 -29 20 c-16 12 -35 21 -43 21 -8 1 -4
8 10 19 13 12 20 25 16 35 -6 17 4 20 30 10z m-366 -104 c74 -45 92 -129 43
-197 -64 -88 -196 -75 -237 24 -19 45 -17 79 7 123 37 66 123 89 187 50z m312
1 c49 -26 80 -87 70 -141 -22 -122 -178 -158 -247 -57 -82 121 48 267 177 198z
m315 -2 c116 -69 74 -240 -62 -253 -74 -8 -146 59 -145 133 1 53 28 99 72 122
46 25 90 24 135 -2z"/>
<path d="M5981 6709 c-95 -58 -89 -193 12 -242 l37 -19 0 -192 c0 -165 2 -193
15 -193 13 0 20 16 16 40 -2 12 9 8 37 -12 72 -50 171 -41 229 22 l32 36 21
-28 c43 -62 153 -79 227 -36 23 14 44 21 44 15 1 -5 2 -15 3 -22 0 -6 9 -12
19 -14 13 -2 17 5 17 29 l0 30 24 -22 c105 -99 286 -18 286 128 0 151 -161
227 -287 135 l-23 -16 0 51 c0 49 1 52 37 68 98 47 101 193 5 242 -46 23 -74
24 -122 4 -74 -30 -102 -122 -60 -200 11 -21 20 -47 20 -59 0 -23 -36 -45 -83
-50 -37 -5 -77 -26 -106 -58 l-24 -26 -33 34 c-57 59 -158 68 -221 20 -18 -14
-34 -23 -34 -20 -1 4 -2 25 -3 49 -1 40 1 43 39 62 134 67 99 253 -50 260 -28
2 -55 -4 -74 -16z m146 -52 c30 -33 36 -72 18 -111 -30 -64 -104 -80 -159 -34
-40 33 -51 79 -28 123 33 67 119 78 169 22z m605 12 c72 -52 33 -174 -57 -183
-58 -5 -115 46 -115 104 0 36 29 80 63 94 39 16 71 12 109 -15z m-98 -215 c12
-4 16 -20 16 -55 l0 -50 -32 23 c-18 13 -35 24 -37 26 -3 1 4 8 14 16 11 8 16
20 12 30 -7 17 1 20 27 10z m-363 -106 c152 -85 24 -316 -132 -237 -49 24 -73
64 -74 121 0 55 24 94 76 120 45 24 83 23 130 -4z m325 -3 c14 -9 34 -36 44
-59 55 -123 -81 -240 -199 -170 -92 54 -80 202 19 243 34 15 104 7 136 -14z
m299 5 c98 -60 92 -196 -11 -241 -56 -25 -105 -17 -152 25 -59 54 -55 161 7
205 49 35 110 39 156 11z"/>
<path d="M2683 4346 c-81 -29 -126 -112 -103 -191 15 -49 53 -91 96 -105 l34
-11 -1 -177 c-1 -281 -2 -272 21 -272 16 0 20 7 20 32 0 29 1 30 18 16 81 -72
199 -69 278 7 l43 41 21 -28 c11 -15 38 -37 59 -48 76 -38 157 -31 222 20 l36
29 -3 -35 c-2 -30 0 -33 22 -32 19 2 24 8 24 32 0 27 1 28 18 14 75 -67 190
-69 266 -6 62 51 86 127 64 208 -36 131 -204 187 -315 104 l-31 -24 -4 44 c-5
63 -2 69 47 95 89 47 112 166 46 239 -36 41 -66 54 -121 55 -33 0 -59 -7 -85
-23 -68 -42 -94 -149 -52 -213 8 -13 19 -39 25 -59 9 -33 8 -36 -20 -53 -17
-10 -47 -20 -67 -22 -46 -6 -113 -45 -135 -78 l-17 -25 -29 34 c-74 84 -208
92 -292 18 -17 -14 -18 -11 -18 45 0 58 1 61 27 68 68 17 113 79 113 157 0
102 -111 179 -207 144z m115 -47 c93 -59 61 -203 -49 -222 -43 -8 -108 27
-124 67 -20 48 -19 75 5 114 34 55 114 75 168 41z m699 2 c76 -40 86 -131 21
-193 -25 -25 -36 -29 -80 -31 -34 -1 -71 19 -95 49 -21 29 -25 42 -20 80 5 47
34 89 72 104 23 10 77 5 102 -9z m-92 -260 c17 -7 20 -17 20 -65 0 -31 -1 -56
-3 -56 -2 0 -18 11 -36 25 -18 14 -39 25 -47 25 -8 0 -3 9 13 20 18 14 24 26
21 40 -6 21 0 23 32 11z m-420 -119 c46 -24 85 -90 80 -137 -7 -76 -39 -121
-105 -148 -111 -46 -237 60 -210 178 24 109 137 160 235 107z m332 14 c24 -4
83 -56 93 -82 37 -97 3 -179 -90 -217 -99 -41 -210 36 -210 145 0 27 5 59 11
71 17 33 70 77 99 83 14 3 30 7 35 9 6 2 18 1 29 -2 10 -3 25 -6 33 -7z m403
-26 c34 -24 69 -91 66 -125 -9 -78 -40 -121 -106 -148 -61 -25 -137 -4 -179
49 -115 146 68 332 219 224z"/>
<path d="M4838 4347 c-20 -7 -49 -22 -63 -35 -84 -74 -54 -228 51 -262 l34
-12 0 -224 c0 -217 1 -224 20 -224 16 0 20 7 20 31 l0 31 33 -25 c37 -28 101
-48 132 -42 11 2 29 4 40 4 31 1 102 50 115 79 l11 25 32 -35 c46 -50 90 -70
157 -70 56 -1 120 25 142 56 5 7 8 7 9 1 1 -5 2 -14 4 -20 1 -5 3 -16 3 -22 1
-7 11 -13 22 -13 16 0 20 7 20 31 l0 31 33 -25 c113 -86 281 -31 317 105 47
174 -133 310 -297 224 -18 -9 -33 -21 -33 -26 0 -6 -4 -10 -10 -10 -6 0 -10
26 -10 58 0 58 0 58 38 75 51 22 82 67 89 128 21 175 -220 243 -297 83 -25
-52 -23 -99 9 -161 11 -21 21 -46 23 -57 4 -25 -40 -57 -88 -63 -48 -6 -101
-36 -132 -73 l-24 -29 -30 35 c-43 49 -81 66 -148 65 -53 0 -130 -25 -130 -42
0 -4 -7 -9 -15 -13 -12 -4 -15 5 -15 54 0 56 1 59 29 65 32 7 82 48 100 83 17
32 16 104 -2 138 -37 71 -114 104 -189 81z m94 -36 c17 -2 60 -52 68 -80 9
-33 -1 -84 -24 -113 -16 -22 -75 -47 -100 -42 -67 10 -107 52 -112 115 -5 71
65 135 136 124 14 -2 28 -4 32 -4z m732 -17 c67 -50 63 -153 -8 -199 -100 -66
-227 47 -171 154 33 65 121 87 179 45z m-105 -254 c14 -7 17 -20 16 -62 -2
-29 -3 -55 -4 -56 -1 -2 -14 7 -31 21 -16 14 -35 27 -42 30 -9 3 -6 10 10 22
16 11 21 23 17 36 -7 21 6 25 34 9z m-422 -118 c38 -21 74 -78 78 -123 4 -55
-9 -89 -48 -127 -81 -77 -204 -55 -254 47 -44 89 14 202 113 223 25 5 84 -6
111 -20z m353 2 c57 -31 78 -61 86 -121 9 -75 -43 -151 -119 -171 -57 -16
-129 8 -164 55 -24 31 -28 46 -28 97 0 49 5 67 23 91 56 70 129 88 202 49z
m368 -3 c63 -33 97 -137 66 -199 -77 -155 -302 -109 -306 62 -2 122 128 197
240 137z"/>
<path d="M6974 4342 c-62 -31 -92 -75 -98 -139 -5 -62 43 -134 100 -153 l34
-12 0 -224 c0 -217 1 -224 20 -224 15 0 20 7 20 30 l0 29 48 -29 c52 -32 105
-42 158 -30 44 10 99 47 116 78 l12 23 32 -35 c80 -87 188 -94 292 -19 23 16
24 16 22 -3 -4 -35 0 -44 20 -44 15 0 20 7 20 30 l0 29 50 -31 c117 -73 269
-16 300 113 21 86 -5 161 -73 213 -78 59 -209 48 -264 -23 -10 -13 -12 -4 -13
51 0 64 1 66 28 76 97 34 134 155 73 239 -75 104 -226 85 -277 -36 -16 -38
-10 -99 14 -141 34 -60 35 -85 6 -105 -15 -9 -44 -19 -65 -21 -50 -5 -89 -25
-129 -68 l-32 -34 -29 33 c-74 84 -206 91 -286 15 l-23 -21 0 64 0 63 38 13
c68 24 103 73 104 145 1 53 -18 92 -62 127 -42 34 -112 44 -156 21z m113 -38
c41 -20 59 -46 67 -94 20 -134 -178 -184 -229 -58 -25 63 -2 122 58 152 41 20
61 20 104 0z m706 1 c135 -66 53 -270 -88 -222 -102 35 -111 172 -15 219 43
22 63 22 103 3z m-87 -261 c19 -5 22 -13 21 -65 -1 -32 -5 -59 -9 -59 -4 0 -8
4 -8 8 0 5 -16 17 -35 28 -40 21 -43 30 -14 39 16 5 19 12 15 31 -7 25 -4 27
30 18z m-407 -131 c48 -36 66 -71 66 -127 0 -142 -157 -212 -263 -118 -119
107 -19 305 137 271 19 -4 46 -16 60 -26z m365 2 c32 -21 66 -87 66 -129 0
-82 -67 -154 -149 -160 -145 -11 -226 171 -120 271 53 51 140 59 203 18z m355
-2 c47 -36 65 -70 65 -126 1 -93 -60 -157 -153 -159 -120 -3 -197 118 -145
228 40 85 157 113 233 57z"/>
</g>
</svg>
